<svg xmlns="http://www.w3.org/2000/svg"
shape-rendering="geometricPrecision"
width="4000" height="4000" viewBox="0 0 599 599"><rect width="100%" height="100%" fill="#FFFFFF" />
  <metadata>null</metadata>

<path d="
M 27.286 436.3
C 30.855 436.358 34.437 436.268 38.01 436.282
C 39.353 436.287 41.19 435.924 42.445 436.381
C 42.132 440.379 42.385 444.502 42.39 448.514
C 42.399 456.681 42.449 464.847 42.464 473.014
C 42.471 476.681 42.465 480.347 42.462 484.014
C 42.461 485.703 42.153 487.637 42.75 489.245
C 46.212 488.781 50.007 489.177 53.507 489.182
C 60.726 489.19 67.945 489.26 75.163 489.246
C 75.691 490.316 75.254 492.295 75.253 493.499
C 75.25 496.772 75.396 500.052 75.36 503.321
C 64.116 502.859 52.759 503.394 41.505 503.402
C 38.337 503.404 35.17 503.361 32.003 503.362
C 30.47 503.362 28.591 503.677 27.109 503.342
C 26.514 494.989 27.094 486.382 27.094 478
C 27.094 464.107 26.86 450.184 27.286 436.3 Z"
opacity="1" fill="rgb(20,37,89)" fill-rule="evenodd" />
<path d="
M 83.426 436.585
C 85.28 428.942 96.685 427.945 99.829 435.243
C 100.661 437.175 100.651 439.357 100.102 441.362
C 98.782 446.189 92.663 448.3 88.296 446.384
C 84.677 444.797 82.486 440.458 83.426 436.585 Z"
opacity="1" fill="rgb(20,34,87)" fill-rule="evenodd" />
<path d="
M 84.474 454.598
C 84.583 453.861 84.585 453.681 85.081 453.051
C 88.385 452.559 91.975 453.022 95.311 453.052
C 96.231 453.06 98.446 452.718 99.124 453.314
C 99.224 465.537 99.188 477.774 99.188 490.002
C 99.188 493.169 99.175 496.335 99.178 499.502
C 99.179 500.362 99.634 502.283 99.076 502.982
C 95.826 502.957 92.574 502.961 89.324 502.965
C 87.774 502.966 85.992 503.277 84.505 502.83
C 83.994 486.847 84.022 470.591 84.474 454.598 Z"
opacity="1" fill="rgb(17,35,90)" fill-rule="evenodd" />
<path d="
M 107.76 453.27
C 112.675 453.013 118.31 452.652 123.195 453.236
C 125.588 461.2 127.647 469.36 129.623 477.442
C 130.067 479.258 130.54 481.055 130.857 482.898
C 130.925 483.297 130.99 484.786 131.393 484.882
C 132.513 482.96 132.751 480.19 133.468 478.073
C 135.353 472.5 137.142 466.859 138.839 461.227
C 139.56 458.833 139.946 455.376 141.423 453.35
C 145.584 453.434 149.953 453.711 154.094 453.267
C 155.321 455.468 155.618 458.473 156.404 460.88
C 158.971 468.739 160.781 476.956 163.635 484.7
C 165.094 482.496 165.22 478.628 165.925 476.068
C 167.976 468.62 169.453 460.753 172.062 453.491
C 176.791 452.606 182.183 453.549 186.987 453.442
C 186.809 454.127 186.6 454.805 186.398 455.483
C 181.309 471.319 177.223 487.538 171.628 503.203
C 170.51 503.662 168.461 503.263 167.252 503.247
C 163.825 503.202 160.144 503.599 156.752 503.194
C 154.893 495.606 152.191 488.031 149.696 480.628
C 149.107 478.883 148.629 477.077 147.872 475.398
C 147.622 474.844 147.832 473.696 147.224 473.693
C 146.464 473.69 146.962 475.199 146.703 475.913
C 146.145 477.452 145.584 478.993 145.082 480.551
C 142.662 488.055 139.468 495.592 137.685 503.271
C 136.651 503.7 134.719 503.264 133.57 503.247
C 130.099 503.196 126.629 503.161 123.159 503.248
C 118.278 486.528 112.966 469.89 107.76 453.27 Z"
opacity="1" fill="rgb(18,34,89)" fill-rule="evenodd" />
<path d="
M 201.991 118.373
C 208.863 120.773 208.604 129.677 208.306 135.49
C 208.225 137.066 208.195 138.658 207.967 140.221
C 207.902 140.493 208.829 139.719 208.918 139.648
C 209.623 139.086 210.411 138.637 211.167 138.15
C 213.197 136.845 215.15 135.333 217.267 134.176
C 222.616 130.623 227.986 127.084 233.46 123.721
C 234.19 126.28 234.135 129.194 234.648 131.829
C 235.543 136.427 237.17 140.831 239.399 144.945
C 241.031 147.957 243.181 150.725 245.513 153.223
C 246.644 154.436 248.202 155.52 249.091 156.918
C 242.121 161.071 235.447 165.736 228.697 170.236
C 217.3 177.836 205.771 185.273 194.224 192.644
C 183.377 199.567 171.773 206.005 162.451 214.992
C 156.355 220.868 151.516 228.387 148.221 236.159
C 142.848 248.832 141.367 262.854 140.985 276.491
C 140.895 279.707 141.065 282.933 140.957 286.142
C 140.896 287.953 140.393 289.703 140.356 291.526
C 140.304 294.116 140.698 296.945 140.28 299.5
C 140.226 283.666 140.278 267.833 140.299 252
C 140.306 247.014 140.309 242.027 140.335 237.041
C 140.347 234.798 140.746 232.222 140.365 230.012
C 140.149 228.762 138.773 227.577 138.109 226.518
C 136.701 224.274 135.513 221.876 134.604 219.386
C 130.887 209.2 132.866 197.637 138.434 188.51
C 143.225 180.658 150.639 176.377 158.231 171.687
C 163.001 168.74 167.626 165.548 172.365 162.55
C 174.818 160.999 177.988 159.697 180.178 157.829
C 180.724 149.03 180.082 140.058 180.222 131.236
C 180.296 126.597 180.717 121.665 185.39 119.269
C 189.983 116.913 197.003 118.224 201.991 118.373 Z"
opacity="1" fill="rgb(73,174,240)" fill-rule="evenodd" />
<path d="
M 140.28 299.5
C 140.698 296.945 140.304 294.116 140.356 291.526
C 140.393 289.703 140.896 287.953 140.957 286.142
C 141.065 282.933 140.895 279.707 140.985 276.491
C 141.367 262.854 142.848 248.832 148.221 236.159
C 151.516 228.387 156.355 220.868 162.451 214.992
C 171.773 206.005 183.377 199.567 194.224 192.644
C 205.771 185.273 217.3 177.836 228.697 170.236
C 235.447 165.736 242.121 161.071 249.091 156.918
C 249.634 156.985 249.356 156.966 249.925 156.971
C 252.4 160.289 258.108 161.948 261.886 163.078
C 263.353 163.516 264.886 164.326 266.448 164.186
C 266.19 165.035 266.033 165.193 265.347 165.648
C 259.48 168.254 254.154 172.329 248.717 175.71
C 245.308 177.83 240.679 179.824 237.9 182.738
C 235.875 183.545 234.09 184.936 232.233 186.054
C 228.466 188.322 224.788 190.757 221.071 193.107
C 208.399 201.117 194.164 208.131 187.563 222.451
C 181.719 235.129 183.166 248.934 183.166 262.505
C 183.166 284.336 183.056 306.167 183.067 327.997
C 183.071 335.331 183.057 342.665 183.075 349.998
C 183.085 354.304 182.786 358.725 183.491 362.99
C 185.017 372.22 189.68 381.015 196.481 387.419
C 199.252 390.029 202.433 392.087 205.818 393.806
C 208.886 395.363 211.998 396.227 215.279 397.176
C 216.775 397.608 217.907 398.246 219.504 398.197
C 219.062 398.392 218.685 398.478 218.2 398.517
C 210.347 398.717 202.375 398.268 194.505 398.249
C 187.485 398.232 180.281 398.727 173.353 397.366
C 169.218 396.553 165.05 395.117 161.347 393.099
C 158.206 391.388 155.317 389.229 152.679 386.817
C 146 380.711 141.825 371.843 140.629 362.921
C 139.992 358.17 140.251 353.279 140.24 348.497
C 140.223 341.831 140.271 335.165 140.283 328.499
C 140.301 318.833 140.306 309.166 140.28 299.5 Z"
opacity="1" fill="rgb(36,136,215)" fill-rule="evenodd" />
<path d="
M 237.9 182.738
C 238.478 183.777 236.806 184.662 236.132 185.858
C 234.147 189.383 231.579 192.605 229.419 196.034
C 222.056 207.719 217.387 222.098 216.237 235.872
C 215.565 243.919 215.694 251.925 215.511 259.991
C 215.117 277.315 215.156 294.671 215.203 312.001
C 215.241 326.125 213.282 341.434 218.05 354.991
C 220.036 360.636 223.475 365.88 227.784 370.015
C 230.168 372.302 234.242 374.194 235.745 377.011
C 235.762 383.981 235.048 391.267 235.858 398.198
C 230.409 398.336 224.954 398.112 219.504 398.197
C 217.907 398.246 216.775 397.608 215.279 397.176
C 211.998 396.227 208.886 395.363 205.818 393.806
C 202.433 392.087 199.252 390.029 196.481 387.419
C 189.68 381.015 185.017 372.22 183.491 362.99
C 182.786 358.725 183.085 354.304 183.075 349.998
C 183.057 342.665 183.071 335.331 183.067 327.997
C 183.056 306.167 183.166 284.336 183.166 262.505
C 183.166 248.934 181.719 235.129 187.563 222.451
C 194.164 208.131 208.399 201.117 221.071 193.107
C 224.788 190.757 228.466 188.322 232.233 186.054
C 234.09 184.936 235.875 183.545 237.9 182.738 Z"
opacity="1" fill="rgb(15,33,92)" fill-rule="evenodd" />
<path d="
M 191.906 486.102
C 192.214 484.245 192.674 482.505 193.53 480.818
C 199.281 469.491 213.813 472.215 223.85 473.883
C 223.528 471.571 223.694 469.469 222.126 467.519
C 220.372 465.338 217.469 464.535 214.793 464.406
C 209.498 464.15 204.688 465.676 200.131 468.3
C 199.376 467.623 198.853 465.958 198.396 465.017
C 197.297 462.751 196.094 460.549 194.929 458.323
C 203.057 452.619 214.001 450.608 223.71 452.902
C 228.562 454.048 233.221 456.576 235.743 461.053
C 239.918 468.466 238.453 478.341 238.464 486.512
C 238.469 490.344 238.424 494.176 238.398 498.008
C 238.389 499.301 238.86 501.556 238.355 502.721
C 233.944 502.793 229.318 502.261 224.949 502.936
C 224.855 501.292 224.749 499.654 224.744 498.007
C 221.515 500.706 219.083 502.888 214.775 503.776
C 203.286 506.144 190.471 499.04 191.906 486.102 Z
M 206.873 485.531
C 205.327 491.454 211.918 493.758 216.711 492.987
C 222.152 492.112 224.375 488.395 223.946 483.073
C 218.751 481.597 209.878 479.839 206.873 485.531 Z"
opacity="1" fill="rgb(16,33,90)" fill-rule="evenodd" />
<path d="
M 201.991 118.373
C 204.898 118.445 208.196 117.48 211.036 118.396
C 212.375 118.827 213.544 119.873 214.57 120.798
C 215.316 121.471 216.2 122.29 216.599 123.233
C 217.361 125.035 216.913 127.877 216.893 129.799
C 216.882 130.906 216.845 132.038 216.995 133.138
C 217.018 133.307 217.326 134.056 217.267 134.176
C 215.15 135.333 213.197 136.845 211.167 138.15
C 210.411 138.637 209.623 139.086 208.918 139.648
C 208.829 139.719 207.902 140.493 207.967 140.221
C 208.195 138.658 208.225 137.066 208.306 135.49
C 208.604 129.677 208.863 120.773 201.991 118.373 Z"
opacity="1" fill="rgb(160,236,250)" fill-rule="evenodd" />
<path d="
M 237.9 182.738
C 240.679 179.824 245.308 177.83 248.717 175.71
C 254.154 172.329 259.48 168.254 265.347 165.648
C 267.458 165.066 269.85 165.347 272.025 165.206
C 279.022 164.753 285.465 165.529 292.154 167.557
C 300.254 170.012 307.213 174.641 314.236 179.209
C 326.026 186.877 337.355 195.209 349.046 203.024
C 353.442 205.963 357.93 208.996 361.836 212.576
C 363.04 213.679 364.184 214.836 365.291 216.036
C 365.678 216.456 366.273 217.278 366.862 217.373
C 363.5 219.928 359.56 221.892 355.913 224.007
C 350.491 227.153 345.238 230.595 339.917 233.907
C 336.731 235.891 333.65 238.044 330.422 239.963
C 328.846 240.899 327.191 242.146 325.386 242.587
C 323.024 243.164 320.323 242.715 317.908 242.74
C 312.603 242.796 307.3 242.82 301.994 242.806
C 287.827 242.768 273.673 243.494 259.507 243.47
C 256.363 243.476 253.105 243.619 250.043 244.399
C 248.008 244.917 246.028 245.767 244.326 246.997
C 233.769 254.626 235.754 267.655 235.76 279.168
C 235.771 299.115 235.674 319.063 235.728 339.01
C 235.762 351.655 236.155 364.376 235.745 377.011
C 234.242 374.194 230.168 372.302 227.784 370.015
C 223.475 365.88 220.036 360.636 218.05 354.991
C 213.282 341.434 215.241 326.125 215.203 312.001
C 215.156 294.671 215.117 277.315 215.511 259.991
C 215.694 251.925 215.565 243.919 216.237 235.872
C 217.387 222.098 222.056 207.719 229.419 196.034
C 231.579 192.605 234.147 189.383 236.132 185.858
C 236.806 184.662 238.478 183.777 237.9 182.738 Z"
opacity="1" fill="rgb(26,54,127)" fill-rule="evenodd" />
<path d="
M 264.341 104.131
C 273.29 102.224 282.531 102.064 291.423 104.534
C 305.437 108.426 317.273 118.011 329.233 125.853
C 349.157 138.917 369.175 151.848 389.205 164.748
C 399.953 171.67 411.277 178.153 421.365 186.023
C 432.399 194.63 438.665 206.758 439.877 220.619
C 440.157 223.827 440.745 227.74 440.017 230.887
C 439.167 234.13 439.752 238.163 439.755 241.502
C 439.761 248.835 439.794 256.168 439.797 263.501
C 439.805 285.501 439.765 307.501 439.768 329.501
C 439.768 336.501 439.799 343.5 439.799 350.5
C 439.799 355.109 440.033 359.696 439.156 364.245
C 437.06 375.116 430.424 385.619 420.815 391.335
C 416.959 393.628 412.761 395.522 408.391 396.593
C 407.109 396.906 404.086 396.872 403.83 398.502
C 403.947 394.357 403.786 390.184 403.788 386.035
C 404.398 386.235 406.205 383.629 406.752 383.071
C 412.828 376.539 416.741 368.286 417.999 359.405
C 418.884 353.16 418.615 346.79 418.641 340.5
C 418.685 330 418.657 319.499 418.685 308.999
C 418.734 290.692 418.6 272.383 418.74 254.076
C 418.839 241.201 419.743 227.852 414.668 215.705
C 406.044 195.062 384.793 185.618 367.103 174.07
C 356.803 167.346 346.557 160.525 336.215 153.869
C 329.242 149.381 322.53 144.293 314.834 141.07
C 300.805 135.194 284.958 135.954 271.469 142.886
C 264.037 146.706 256.339 151.628 249.925 156.971
C 249.356 156.966 249.634 156.985 249.091 156.918
C 248.202 155.52 246.644 154.436 245.513 153.223
C 243.181 150.725 241.031 147.957 239.399 144.945
C 237.17 140.831 235.543 136.427 234.648 131.829
C 234.135 129.194 234.19 126.28 233.46 123.721
C 233.821 122.938 234.967 122.492 235.685 122.073
C 237.569 120.974 239.38 119.715 241.206 118.524
C 246.276 115.216 251.459 112.076 256.518 108.75
C 258.792 107.255 261.696 104.801 264.341 104.131 Z"
opacity="1" fill="rgb(111,209,247)" fill-rule="evenodd" />
<path d="
M 332.999 247.482
C 333.154 247.466 333.31 247.45 333.465 247.434
C 332.045 248.409 330.326 248.872 328.968 249.962
C 327.868 250.846 326.947 252.809 325.479 252.982
C 319.348 252.166 312.694 252.831 306.506 252.805
C 293.671 252.752 280.836 252.779 268.001 252.705
C 260.792 252.664 251.883 251.079 247.116 257.885
C 243.879 262.507 244.896 269.673 244.902 274.998
C 244.916 287.821 245.062 300.669 245.064 313.478
C 244.818 316.832 244.919 320.136 244.955 323.495
C 243.961 333.7 244.701 344.281 245.126 354.5
C 245.15 358.903 244.503 363.808 245.106 368.14
C 245.237 369.082 244.631 371.216 245.365 371.855
C 244.683 374.12 245.203 377.131 245.185 379.501
C 245.139 385.52 245.605 391.843 244.744 397.804
C 243.426 398.283 241.863 398.262 240.476 398.331
C 239.969 397.642 240.211 396.343 240.212 395.504
C 240.216 393.502 240.208 391.501 240.219 389.499
C 240.262 381.501 240.289 373.502 240.305 365.503
C 240.363 337.669 240.182 309.835 240.243 282.001
C 240.252 277.835 240.238 273.668 240.244 269.502
C 240.254 262.664 240.421 255.82 246.35 251.268
C 253.004 246.16 263.131 247.934 271.005 247.958
C 285.405 248.003 299.817 248.158 314.21 248.085
C 318.8 248.062 323.392 248.125 327.981 248.061
C 329.72 248.036 331.265 247.261 332.999 247.482 Z"
opacity="1" fill="rgb(21,44,104)" fill-rule="evenodd" />
<path d="
M 325.479 252.982
C 325.953 253.362 325.842 254.419 325.838 255
C 325.839 255.697 326.016 256.315 326.097 257.001
C 325.593 261.988 325.874 266.969 325.896 272.004
C 325.932 280.003 325.956 288 325.967 295.998
C 325.972 299.503 325.817 303 325.788 306.502
C 325.776 307.874 326.252 309.709 325.899 311.013
C 325.626 309.494 323.915 308.582 322.696 307.778
C 319.407 305.61 316.075 303.006 312.472 301.411
C 311.777 300.588 311.832 299.626 311.618 298.614
C 311.267 296.954 310.767 295.29 310.126 293.719
C 308.277 289.184 305.306 285.091 301.33 282.184
C 287.827 272.311 267.145 276.955 260.408 292.533
C 258.976 295.844 258.677 298.911 258.64 302.464
C 257.795 303.087 256.441 303.368 255.484 303.843
C 252.499 305.323 249.097 307.137 246.856 309.661
C 245.756 310.9 245.818 312.178 245.064 313.478
C 245.062 300.669 244.916 287.821 244.902 274.998
C 244.896 269.673 243.879 262.507 247.116 257.885
C 251.883 251.079 260.792 252.664 268.001 252.705
C 280.836 252.779 293.671 252.752 306.506 252.805
C 312.694 252.831 319.348 252.166 325.479 252.982 Z"
opacity="1" fill="rgb(254,158,43)" fill-rule="evenodd" />
<path d="
M 245.064 313.478
C 245.818 312.178 245.756 310.9 246.856 309.661
C 249.097 307.137 252.499 305.323 255.484 303.843
C 256.441 303.368 257.795 303.087 258.64 302.464
C 258.826 305.388 258.843 308.35 258.806 311.28
C 258.795 312.134 259.179 312.975 259.019 313.792
C 258.346 318.431 258.638 323.371 258.62 328.057
C 258.588 336.37 258.618 344.684 258.61 352.997
C 258.606 357.164 258.628 361.331 258.615 365.498
C 258.61 367.312 258.176 369.959 258.656 371.685
C 254.255 372.1 249.749 371.279 245.365 371.855
C 244.631 371.216 245.237 369.082 245.106 368.14
C 244.503 363.808 245.15 358.903 245.126 354.5
C 245.237 353.341 246.304 352.654 246.281 351.341
C 246.261 350.18 245.431 349.515 245.388 348.36
C 245.245 342.096 245.629 335.761 245.623 329.484
C 245.621 327.894 246.373 324.149 244.955 323.495
C 244.919 320.136 244.818 316.832 245.064 313.478 Z"
opacity="1" fill="rgb(255,188,91)" fill-rule="evenodd" />
<path d="
M 244.955 323.495
C 246.373 324.149 245.621 327.894 245.623 329.484
C 245.629 335.761 245.245 342.096 245.388 348.36
C 245.431 349.515 246.261 350.18 246.281 351.341
C 246.304 352.654 245.237 353.341 245.126 354.5
C 244.701 344.281 243.961 333.7 244.955 323.495 Z"
opacity="0.996" fill="rgb(241,188,124)" fill-rule="evenodd" />
<path d="
M 249.925 156.971
C 256.339 151.628 264.037 146.706 271.469 142.886
C 284.958 135.954 300.805 135.194 314.834 141.07
C 322.53 144.293 329.242 149.381 336.215 153.869
C 346.557 160.525 356.803 167.346 367.103 174.07
C 384.793 185.618 406.044 195.062 414.668 215.705
C 419.743 227.852 418.839 241.201 418.74 254.076
C 418.6 272.383 418.734 290.692 418.685 308.999
C 418.657 319.499 418.685 330 418.641 340.5
C 418.615 346.79 418.884 353.16 417.999 359.405
C 416.741 368.286 412.828 376.539 406.752 383.071
C 406.205 383.629 404.398 386.235 403.788 386.035
C 402.918 339.393 403.626 292.655 403.66 246
C 403.665 239.02 403.593 232.038 403.663 225.059
C 403.702 221.17 404.228 216.875 403.222 213.077
C 401.822 207.791 396.798 204.159 391.342 204.577
C 388.013 204.833 385.857 206.609 382.908 207.789
C 376.854 201.745 369.374 197.353 362.199 192.793
C 352.289 186.495 342.431 180.041 332.693 173.48
C 322.261 166.451 311.989 157.853 298.998 156.492
C 291.446 155.702 283.606 156.609 276.471 159.256
C 273.035 160.53 269.928 163.196 266.448 164.186
C 264.886 164.326 263.353 163.516 261.886 163.078
C 258.108 161.948 252.4 160.289 249.925 156.971 Z"
opacity="1" fill="rgb(78,178,239)" fill-rule="evenodd" />
<path d="
M 253.779 438.299
C 260.776 438.056 267.807 438.235 274.81 438.224
C 281.989 438.212 288.823 437.896 295.06 442.024
C 304.471 448.253 306.603 462.799 299.681 471.615
C 297.153 474.834 293.442 476.774 289.602 477.935
C 292.809 483.471 296.694 488.624 300.036 494.082
C 301.603 496.64 303.198 500.55 305.527 502.457
C 304.864 502.685 304.301 502.403 303.625 502.455
C 301.069 502.65 298.423 502.706 295.861 502.558
C 295.168 502.012 294.741 500.932 294.275 500.185
C 293.236 498.518 292.075 496.919 290.991 495.281
C 287.403 489.859 283.678 484.495 280.226 479.005
C 277.732 478.873 275.184 479.119 272.68 479.097
C 269.401 479.069 265.927 478.784 262.678 479.248
C 262.853 484.649 262.697 490.094 262.666 495.5
C 262.655 497.584 262.046 500.689 262.64 502.667
C 260.223 502.106 256.482 502.528 254.031 502.782
C 253.455 502.221 253.902 499.377 253.883 498.494
C 253.797 494.496 253.768 490.494 253.765 486.495
C 253.755 470.445 254.171 454.341 253.779 438.299 Z
M 262.74 446.759
C 262.107 454.882 263.22 463.125 262.64 471.248
C 268.16 471.048 273.709 471.327 279.236 471.207
C 282.003 471.146 285.185 471.275 287.797 470.23
C 297.087 466.512 297.252 452.655 288.766 447.984
C 286.004 446.463 282.488 446.649 279.437 446.648
C 273.871 446.646 268.304 446.833 262.74 446.759 Z"
opacity="1" fill="rgb(66,157,230)" fill-rule="evenodd" />
<path d="
M 312.472 301.411
C 311.406 301.608 311.898 304.108 311.907 304.994
C 311.946 308.67 311.77 312.354 311.791 316.033
C 311.627 315.279 309.812 314.601 309.16 314.231
C 306.269 312.589 303.14 311.078 299.98 310.035
C 289.682 306.637 278.207 305.535 267.789 309.219
C 264.732 310.3 261.446 311.579 259.019 313.792
C 259.179 312.975 258.795 312.134 258.806 311.28
C 258.843 308.35 258.826 305.388 258.64 302.464
C 258.677 298.911 258.976 295.844 260.408 292.533
C 267.145 276.955 287.827 272.311 301.33 282.184
C 305.306 285.091 308.277 289.184 310.126 293.719
C 310.767 295.29 311.267 296.954 311.618 298.614
C 311.832 299.626 311.777 300.588 312.472 301.411 Z"
opacity="1" fill="rgb(255,213,145)" fill-rule="evenodd" />
<path d="
M 259.507 243.47
C 273.673 243.494 287.827 242.768 301.994 242.806
C 307.3 242.82 312.603 242.796 317.908 242.74
C 320.323 242.715 323.024 243.164 325.386 242.587
C 327.191 242.146 328.846 240.899 330.422 239.963
C 333.65 238.044 336.731 235.891 339.917 233.907
C 345.238 230.595 350.491 227.153 355.913 224.007
C 359.56 221.892 363.5 219.928 366.862 217.373
C 370.618 215.551 374.158 212.578 377.75 210.389
C 379.319 209.433 381.071 208.079 382.908 207.789
C 385.857 206.609 388.013 204.833 391.342 204.577
C 396.798 204.159 401.822 207.791 403.222 213.077
C 404.228 216.875 403.702 221.17 403.663 225.059
C 403.593 232.038 403.665 239.02 403.66 246
C 403.626 292.655 402.918 339.393 403.788 386.035
C 403.786 390.184 403.947 394.357 403.83 398.502
C 403.805 402.941 403.808 407.38 403.797 411.819
C 403.791 414.181 404.037 416.729 403.549 419.053
C 402.732 422.939 399.259 424.675 395.564 423.359
C 394.933 422.753 395.315 421.325 395.31 420.505
C 395.296 418.005 395.29 415.504 395.285 413.004
C 395.263 403.004 395.274 393.004 395.282 383.004
C 395.311 342.505 395.286 302.005 395.217 261.506
C 395.196 249.222 395.114 236.938 395.256 224.655
C 395.294 221.364 396.267 213.991 391.808 212.926
C 389.981 212.49 388.342 213.702 386.857 214.583
C 383.453 216.603 380.016 218.561 376.643 220.632
C 367.287 226.376 357.969 232.21 348.481 237.732
C 346.033 239.157 343.522 240.609 341.17 242.186
C 340.046 242.94 338.798 244.005 337.49 244.389
C 336.828 244.421 336.795 244.354 336.509 244.995
C 336.169 244.636 335.979 244.343 335.51 244.166
C 329.119 243.3 322.454 243.842 315.996 243.825
C 303.828 243.792 291.66 243.824 279.492 243.767
C 275.156 243.747 270.823 243.627 266.488 243.607
C 264.298 243.597 261.63 244.008 259.507 243.47 Z"
opacity="1" fill="rgb(19,34,87)" fill-rule="evenodd" />
<path d="
M 440.017 230.887
C 440.745 227.74 440.157 223.827 439.877 220.619
C 438.665 206.758 432.399 194.63 421.365 186.023
C 411.277 178.153 399.953 171.67 389.205 164.748
C 369.175 151.848 349.157 138.917 329.233 125.853
C 317.273 118.011 305.437 108.426 291.423 104.534
C 282.531 102.064 273.29 102.224 264.341 104.131
C 266.729 101.632 270.171 100.198 273.243 98.694
C 283.989 93.436 296.227 93.23 307.307 97.641
C 312.295 99.626 316.883 102.625 321.31 105.626
C 348.248 123.885 376.113 140.732 403.109 158.892
C 410.895 164.13 418.98 168.922 426.729 174.211
C 430.663 176.897 434.848 179.148 438.046 182.754
C 446.249 192.006 449.92 205.289 446.605 217.341
C 445.226 222.353 442.657 226.477 440.017 230.887 Z"
opacity="1" fill="rgb(155,229,247)" fill-rule="evenodd" />
<path d="
M 266.448 164.186
C 269.928 163.196 273.035 160.53 276.471 159.256
C 283.606 156.609 291.446 155.702 298.998 156.492
C 311.989 157.853 322.261 166.451 332.693 173.48
C 342.431 180.041 352.289 186.495 362.199 192.793
C 369.374 197.353 376.854 201.745 382.908 207.789
C 381.071 208.079 379.319 209.433 377.75 210.389
C 374.158 212.578 370.618 215.551 366.862 217.373
C 366.273 217.278 365.678 216.456 365.291 216.036
C 364.184 214.836 363.04 213.679 361.836 212.576
C 357.93 208.996 353.442 205.963 349.046 203.024
C 337.355 195.209 326.026 186.877 314.236 179.209
C 307.213 174.641 300.254 170.012 292.154 167.557
C 285.465 165.529 279.022 164.753 272.025 165.206
C 269.85 165.347 267.458 165.066 265.347 165.648
C 266.033 165.193 266.19 165.035 266.448 164.186 Z"
opacity="1" fill="rgb(42,78,157)" fill-rule="evenodd" />
<path d="
M 312.472 301.411
C 316.075 303.006 319.407 305.61 322.696 307.778
C 323.915 308.582 325.626 309.494 325.899 311.013
C 326.093 324.03 326.117 337.089 326.015 350.106
C 325.958 357.33 325.581 364.672 325.974 371.885
C 324.661 371.344 322.897 371.716 321.499 371.721
C 318.246 371.733 314.985 371.602 311.734 371.712
C 311.77 359.476 311.731 347.235 311.749 334.997
C 311.758 328.715 312.235 322.3 311.791 316.033
C 311.77 312.354 311.946 308.67 311.907 304.994
C 311.898 304.108 311.406 301.608 312.472 301.411 Z"
opacity="1" fill="rgb(255,189,96)" fill-rule="evenodd" />
<path d="
M 312.983 478.113
C 313.647 471.474 315.592 465.017 320.606 460.292
C 329.435 451.973 345.152 452.183 353.185 461.583
C 358.383 467.665 358.897 474.323 358.829 481.925
C 349.807 481.852 340.781 481.971 331.758 481.939
C 329.282 481.93 326.816 482.065 324.34 482.108
C 323.536 482.122 322.069 481.959 321.43 482.369
C 322.05 485.089 322.762 487.66 324.437 489.952
C 328.998 496.193 337.633 498.096 344.6 494.715
C 347.441 493.336 348.618 491.243 350.729 489.119
C 351.961 488.685 356.078 491.567 356.508 492.768
C 350.088 505.39 332.029 506.658 321.602 498.299
C 315.577 493.468 312.672 485.722 312.983 478.113 Z
M 321.44 474.596
C 321.288 475.389 321.309 475.042 321.312 475.631
C 328.034 475.744 334.78 475.689 341.505 475.676
C 344.521 475.67 347.76 475.341 350.752 475.681
C 350.53 472.814 349.962 470.1 348.352 467.659
C 344.101 461.216 334.638 460.05 328.334 464.092
C 324.603 466.484 322.322 470.336 321.44 474.596 Z"
opacity="1" fill="rgb(67,160,230)" fill-rule="evenodd" />
<path d="
M 325.838 255
C 326.064 254.839 326.258 254.656 326.479 254.488
C 326.468 255.358 326.649 256.247 326.097 257.001
C 326.016 256.315 325.839 255.697 325.838 255 Z"
opacity="1" fill="rgb(38,97,161)" fill-rule="evenodd" />
<path d="
M 326.097 257.001
C 326.649 256.247 326.468 255.358 326.479 254.488
C 326.62 253.054 327.898 252.513 329.025 251.779
C 331.007 250.488 333.724 249.502 335.44 247.914
C 336.743 247.545 338.054 246.54 339.234 245.867
C 341.95 244.317 344.654 242.669 347.43 241.227
C 355.915 236.821 364.286 232.029 372.572 227.256
C 375.632 225.493 378.693 223.595 381.84 221.998
C 383.291 221.262 384.893 220.469 386.488 221.281
C 390.81 223.484 389.962 229.517 389.964 233.511
C 389.97 244.678 389.958 255.845 389.98 267.013
C 390.054 303.672 390.039 340.33 390.129 377
C 390.154 387.334 390.103 397.667 390.103 408.001
C 390.103 411.168 390.133 414.347 389.969 417.503
C 389.923 418.394 390.215 419.937 389.829 420.722
C 387.432 419.99 385.063 418.355 382.866 417.161
C 379.591 415.381 376.266 413.682 372.97 411.94
C 363.028 406.686 352.961 401.665 342.994 396.456
C 338.955 394.346 334.933 392.199 330.898 390.08
C 329.495 389.343 326.994 388.584 326.072 387.271
C 325.652 382.279 325.573 376.88 325.974 371.885
C 325.581 364.672 325.958 357.33 326.015 350.106
C 326.117 337.089 326.093 324.03 325.899 311.013
C 326.252 309.709 325.776 307.874 325.788 306.502
C 325.817 303 325.972 299.503 325.967 295.998
C 325.956 288 325.932 280.003 325.896 272.004
C 325.874 266.969 325.593 261.988 326.097 257.001 Z
M 371.074 326.75
C 372.11 330.762 378.82 330.075 381.204 327.925
C 383.953 325.446 385.039 321.701 383.948 318.145
C 382.411 313.136 376.506 311.356 372.396 314.317
C 369.059 315.819 366.921 319.769 368.566 323.404
C 369.173 324.744 370.35 325.553 371.074 326.75 Z"
opacity="1" fill="rgb(83,128,188)" fill-rule="evenodd" />
<path d="
M 335.51 244.166
C 335.979 244.343 336.169 244.636 336.509 244.995
C 336.454 245.106 336.399 245.217 336.345 245.328
C 335.938 245.918 335.329 246.216 334.802 246.687
C 334.356 246.937 333.919 247.198 333.465 247.434
C 333.31 247.45 333.154 247.466 332.999 247.482
C 333.882 246.19 335.386 245.95 335.51 244.166 Z"
opacity="0.992" fill="rgb(182,148,132)" fill-rule="evenodd" />
<path d="
M 337.49 244.389
C 337.118 244.75 336.781 245.044 336.345 245.328
C 336.399 245.217 336.454 245.106 336.509 244.995
C 336.795 244.354 336.828 244.421 337.49 244.389 Z"
opacity="1" fill="rgb(115,114,144)" fill-rule="evenodd" />
<path d="
M 372.396 314.317
C 373.319 314.077 373.544 313.994 373.708 314.978
C 373.585 317.49 374.381 319.965 374.251 322.495
C 374.174 323.999 373.631 326.146 374.44 327.515
C 373.144 327.536 372.265 327.047 371.074 326.75
C 370.35 325.553 369.173 324.744 368.566 323.404
C 366.921 319.769 369.059 315.819 372.396 314.317 Z"
opacity="0.996" fill="rgb(247,203,85)" fill-rule="evenodd" />
<path d="
M 371.074 326.75
C 372.265 327.047 373.144 327.536 374.44 327.515
C 379.144 326.685 380.843 321.575 378.921 317.556
C 378.039 315.71 375.729 313.126 373.708 314.978
C 373.544 313.994 373.319 314.077 372.396 314.317
C 376.506 311.356 382.411 313.136 383.948 318.145
C 385.039 321.701 383.953 325.446 381.204 327.925
C 378.82 330.075 372.11 330.762 371.074 326.75 Z"
opacity="1" fill="rgb(27,44,77)" fill-rule="evenodd" />
<path d="
M 370.943 455.45
C 373.503 455.353 376.083 455.344 378.646 455.338
C 379.1 457.77 378.628 460.55 378.521 463.006
C 379.473 462.272 380.057 460.936 380.869 460.024
C 382.594 458.086 384.697 456.609 387.126 455.69
C 389.767 454.69 393.339 454.137 396.159 454.525
C 398.433 454.838 400.589 454.984 402.71 455.97
C 412.977 460.746 412.421 471.992 412.386 481.641
C 412.37 486.094 412.374 490.547 412.366 495
C 412.362 497.42 411.976 500.217 412.383 502.589
C 412.195 502.861 410.845 502.648 410.509 502.646
C 408.416 502.636 406.324 502.567 404.23 502.571
C 403.502 500.56 404.043 497.543 404.037 495.4
C 404.022 489.27 403.999 483.129 403.925 476.996
C 403.881 473.268 403.98 469.114 401.595 465.983
C 396.416 459.185 384.686 461.897 380.924 468.656
C 378.472 473.06 378.954 478.178 378.952 483.048
C 378.949 489.364 378.134 496.289 378.975 502.538
C 378.463 502.876 377.13 502.608 376.514 502.598
C 374.588 502.57 372.652 502.495 370.728 502.592
C 370.856 492.897 370.727 483.194 370.727 473.498
C 370.727 467.641 371.181 461.546 370.536 455.722
C 370.672 455.631 370.807 455.541 370.943 455.45 Z"
opacity="1" fill="rgb(67,158,229)" fill-rule="evenodd" />
<path d="
M 373.708 314.978
C 375.729 313.126 378.039 315.71 378.921 317.556
C 380.843 321.575 379.144 326.685 374.44 327.515
C 373.631 326.146 374.174 323.999 374.251 322.495
C 374.381 319.965 373.585 317.49 373.708 314.978 Z"
opacity="1" fill="rgb(251,150,65)" fill-rule="evenodd" />
<path d="
M 420.817 455.849
C 422.928 454.777 426.96 455.497 429.329 455.42
C 428.872 450.964 429.669 446.422 429.428 441.964
C 431.271 441.71 433.196 441.876 435.056 441.847
C 435.679 441.837 436.853 441.597 437.318 442.01
C 437.192 446.148 436.764 451.271 437.593 455.322
C 440.554 455.195 443.544 455.278 446.509 455.3
C 447.275 455.306 449.29 454.984 449.816 455.493
C 449.69 457.592 449.509 460.152 449.831 462.229
C 447.227 462.384 444.611 462.354 442.003 462.427
C 440.567 462.468 439.039 462.263 437.681 462.778
C 437.109 470.464 437.605 478.186 437.648 485.884
C 437.664 488.688 437.002 492.453 439.562 494.361
C 441.085 495.497 443.021 495.878 444.871 495.503
C 446.147 495.245 447.728 494.414 449.01 494.703
C 449.631 496.32 450.876 499.612 450.325 501.261
C 447.999 502.293 445.668 503.203 443.083 503.297
C 441.561 503.352 440.03 503.212 438.54 502.896
C 427.488 500.556 429.386 487.558 429.448 479.066
C 429.467 476.505 429.398 473.944 429.443 471.383
C 429.477 469.46 429.461 467.534 429.496 465.614
C 429.514 464.658 429.819 463.431 429.423 462.534
C 426.654 462.305 423.848 462.447 421.072 462.388
C 420.74 460.23 420.951 458.025 420.817 455.849 Z"
opacity="1" fill="rgb(63,158,231)" fill-rule="evenodd" />
<path d="
M 457.469 488.613
C 457.676 486.586 457.952 484.74 458.783 482.855
C 462.599 474.206 474.198 473.132 482.375 474.022
C 485.009 474.309 487.696 474.761 490.343 474.832
C 490.192 472.61 490.442 470.551 489.581 468.424
C 486.527 460.877 476.363 461.01 469.942 463.733
C 467.925 464.589 466.576 466.442 464.702 467.374
C 463.495 465.407 462.316 463.368 461.146 461.37
C 463.724 457.93 468.482 456.01 472.572 455.152
C 482.694 453.027 494.29 455.544 498.143 466.198
C 499.329 469.478 499.207 473.327 499.254 476.765
C 499.335 482.676 499.167 488.589 499.138 494.5
C 499.126 496.897 498.501 500.319 499.143 502.613
C 496.717 502.116 493.812 502.385 491.348 502.496
C 491.006 500.508 491.201 498.392 491.102 496.377
C 488.513 498.467 486.632 500.971 483.37 502.154
C 473.203 505.839 457.215 501.747 457.469 488.613 Z
M 466.446 486.581
C 466.244 487.603 466.177 488.639 466.329 489.675
C 467.48 497.502 478.277 497.526 483.841 495.101
C 486.177 494.083 488.743 492.405 489.755 489.951
C 490.817 487.374 490.358 484.135 490.48 481.415
C 488.829 480.728 486.788 480.769 485.029 480.603
C 478.716 480.005 469.004 479.219 466.446 486.581 Z"
opacity="1" fill="rgb(64,158,229)" fill-rule="evenodd" />
<path d="
M 513.648 434.723
C 516.485 434.757 519.34 434.693 522.174 434.81
C 522.717 436.414 522.283 438.8 522.279 440.501
C 522.268 444.835 522.277 449.169 522.256 453.503
C 522.204 464.17 522.264 474.837 522.255 485.503
C 522.25 491.048 521.565 497.071 522.349 502.564
C 522.297 502.756 520.756 502.578 520.512 502.566
C 518.354 502.466 516.101 502.243 513.952 502.496
C 513.234 500.978 513.68 498.408 513.672 496.731
C 513.649 492.321 513.637 487.911 513.61 483.501
C 513.511 467.293 514.383 450.908 513.648 434.723 Z"
opacity="1" fill="rgb(68,159,227)" fill-rule="evenodd" />
<path d="
M 532.892 495.101
C 532.898 494.96 532.905 494.819 532.912 494.678
C 534.453 492.983 535.896 491.207 537.413 489.493
C 541.902 494.471 549.314 496.853 555.904 496.116
C 558.999 495.77 562.945 494.137 563.109 490.515
C 563.356 485.097 557.57 483.506 553.329 482.421
C 546.595 480.698 536.861 479.099 535.354 470.837
C 535.097 469.43 535.138 467.884 535.332 466.472
C 535.615 464.419 536.558 462.364 537.753 460.688
C 542.759 453.673 554.278 453.264 561.717 456.102
C 564.225 457.059 566.625 458.293 568.607 460.137
C 568.908 460.417 570.191 461.418 570.076 461.862
C 569.918 462.473 568.94 463.295 568.546 463.773
C 567.735 464.759 567.039 465.829 566.34 466.893
C 564.805 466.172 563.455 464.844 561.914 464.046
C 558.146 462.092 553.185 461.471 549.041 462.311
C 545.077 463.115 541.506 467.287 544.612 471.098
C 546.475 473.385 549.767 473.866 552.437 474.621
C 559.504 476.621 568.908 478.015 570.914 486.463
C 572.887 494.769 566.542 501.107 558.941 502.785
C 549.317 504.91 539.947 501.757 532.892 495.101 Z"
opacity="1" fill="rgb(62,158,227)" fill-rule="evenodd" />

</svg>